<?xml version="1.0" encoding="utf-8"?>
<svg height="512px" width="512px" version="1.1" id="Capa_1" xmlns="http://www.w3.org/2000/svg" viewBox="0 0 60 60">
  <rect x="21.725" y="46.472" style="fill: rgb(102, 102, 102); stroke-width: 1;" width="16.367" height="8.863" id="object-0"/>
  <polygon style="fill: rgb(51, 51, 51); stroke-width: 1;" points="22.57 47.201 32.308 47.201 22.57 53.894" id="object-1"/>
  <g id="object-2" style="" transform="matrix(0.113613, 0, 0, 0.108562, 0.823751, 5.558123)">
    <path style="fill: rgb(159, 159, 159);" d="M369.521,487.281H142.496c-8.826-0.026-15.974-7.174-16-16l0,0c0.026-8.826,7.174-15.974,16-16 h227.008c8.826,0.026,15.974,7.174,16,16l0,0C385.505,480.111,378.35,487.273,369.521,487.281z"/>
    <path style="fill: rgb(159, 159, 159);" d="M480.001,376.721H32c-17.652-0.052-31.948-14.349-32-32v-288c0.052-17.652,14.349-31.947,32-32h448 c17.651,0.052,31.947,14.349,32,32v288C511.948,362.372,497.651,376.669,480.001,376.721z"/>
  </g>
  <rect x="3.319" y="10.774" width="53.182" height="33.024" id="object-3" style="stroke-width: 1;"/>
  <path style="stroke-width: 1.563; stroke-opacity: 0.7; paint-order: stroke; fill: rgb(230, 213, 129);" d="M 36.798 24.289 L 31.907 24.289 L 31.907 17.469 C 31.907 16.507 30.648 16.131 30.113 16.931 L 22.288 28.62 C 21.856 29.27 22.325 30.133 23.102 30.133 L 27.994 30.133 L 27.994 36.952 C 27.994 37.921 29.251 38.29 29.787 37.493 L 29.943 37.257 L 37.613 25.802 C 38.044 25.152 37.573 24.289 36.798 24.289 Z" id="path-1"/>
  <g transform="matrix(0.058594, 0, 0, 0.058349, 14.943205, 12.273033)" style="" id="group-1">
    <path style="stroke-opacity: 0.7; paint-order: stroke; fill: rgb(120, 194, 136);" d="M512,256c0,141.134-114.867,256-256,256c-68.674,0-133.677-27.603-181.315-75.464v19.812 c0,9.238-7.456,16.696-16.696,16.696c-9.238,0-16.696-7.457-16.696-16.696v-63.221c-2.226-11.02,6.679-20.257,16.696-20.257h66.783 c9.239,0,16.696,7.457,16.696,16.696c0,9.238-7.456,16.696-16.696,16.696H92.049c41.85,45.746,101.064,72.348,163.951,72.348 c122.769,0,222.609-99.84,222.609-222.609c0-21.148-3.005-42.073-8.793-62.108c-2.56-8.904,2.449-18.143,11.353-20.703 c8.793-2.56,18.143,2.56,20.704,11.353C508.548,207.694,512,231.736,512,256z"/>
    <path style="stroke-opacity: 0.7; paint-order: stroke; fill: rgb(120, 194, 136);" d="M473.043,55.652v66.783c0,8.904-6.568,16.696-18.475,16.696c-0.111,0-0.111,0-0.111,0h-64.892 c-9.239,0-16.696-7.457-16.696-16.696s7.456-16.696,16.696-16.696h30.386C378.101,59.993,318.887,33.391,256,33.391 c-122.769,0-222.609,99.84-222.609,222.609c0,21.148,3.005,42.073,8.793,62.108c2.56,8.904-2.449,18.143-11.353,20.703 c-1.558,0.445-3.117,0.668-4.675,0.668c-7.235,0-13.913-4.786-16.029-12.021C3.452,304.306,0,280.264,0,256 C0,114.866,114.867,0,256,0c69.899,0,135.791,28.494,183.652,77.913V55.652c0-9.238,7.456-16.696,16.696-16.696 C465.587,38.957,473.043,46.414,473.043,55.652z"/>
  </g>
  <g transform="matrix(0.058594, 0, 0, 0.058349, 14.943205, 12.273033)" style="" id="group-2">
    <path style="stroke-opacity: 0.7; paint-order: stroke; fill: rgb(66, 155, 89);" d="M512,256c0,141.134-114.867,256-256,256v-33.391c122.769,0,222.609-99.84,222.609-222.609 c0-21.148-3.005-42.073-8.793-62.108c-2.56-8.904,2.449-18.143,11.353-20.703c8.793-2.56,18.143,2.56,20.704,11.353 C508.548,207.694,512,231.736,512,256z"/>
    <path style="stroke-opacity: 0.7; paint-order: stroke; fill: rgb(66, 155, 89);" d="M473.043,55.652v66.783c0,8.904-6.568,16.696-18.475,16.696c-0.111,0-0.111,0-0.111,0h-64.892 c-9.239,0-16.696-7.457-16.696-16.696s7.456-16.696,16.696-16.696h30.386C378.101,59.993,318.887,33.391,256,33.391V0 c69.899,0,135.791,28.494,183.652,77.913V55.652c0-9.238,7.456-16.696,16.696-16.696C465.587,38.957,473.043,46.414,473.043,55.652 z"/>
  </g>
  <path style="stroke-width: 1.563; stroke-opacity: 0.7; paint-order: stroke; fill: rgb(246, 179, 86);" d="M 37.613 25.802 L 29.943 37.257 L 29.943 17.184 L 30.113 16.931 C 30.648 16.131 31.907 16.507 31.907 17.469 L 31.907 24.289 L 36.798 24.289 C 37.573 24.289 38.044 25.152 37.613 25.802 Z" id="path-2"/>
</svg>